<svg id="Layer_1" data-name="Layer 1" xmlns="http://www.w3.org/2000/svg" xmlns:xlink="http://www.w3.org/1999/xlink" viewBox="0 0 501.36 166.15"><defs><style>.cls-1{fill:#fff;}.cls-2{fill:#4ac1bb;}.cls-3{fill:#fbca0c;}.cls-4,.cls-5{opacity:0.81;}.cls-4{fill:url(#White_Black_2);}.cls-5{fill:url(#White_Black_2-2);}</style><linearGradient id="White_Black_2" x1="168.37" y1="217.17" x2="126.09" y2="296.16" gradientUnits="userSpaceOnUse"><stop offset="0" stop-color="#fff"/><stop offset="1" stop-color="#231f20"/></linearGradient><linearGradient id="White_Black_2-2" x1="5377.04" y1="-161.72" x2="5334.75" y2="-82.72" gradientTransform="translate(5638.77 191.27) rotate(180)" xlink:href="#White_Black_2"/></defs><path class="cls-1" d="M383.25,233.68a5.33,5.33,0,0,1-4.65,5.24v.14a5.33,5.33,0,0,1,4.65,5.24v13.58c0,6.94-3.76,10.62-10.7,10.62H354.84a1.08,1.08,0,0,1-1.18-1.18V210.65a1.05,1.05,0,0,1,1.18-1.18h17.71c6.94,0,10.7,3.69,10.7,10.63Zm-9.81-11.52a2.62,2.62,0,0,0-2.95-2.95h-6.72v14.91h6.72a2.63,2.63,0,0,0,2.95-2.88Zm0,24.65a2.62,2.62,0,0,0-2.95-2.95h-6.72v14.9h6.72a2.62,2.62,0,0,0,2.95-2.95Z" transform="translate(-124.09 -202)"/><path class="cls-1" d="M427.45,218c0,.74-.29,1.26-1.18,1.26H407.82V234h14.1a1.12,1.12,0,0,1,1.18,1.26v7.3a1.11,1.11,0,0,1-1.18,1.26h-14.1v14.9h18.45c.89,0,1.18.37,1.18,1.18v7.38c0,.74-.29,1.18-1.18,1.18H399.12a1.06,1.06,0,0,1-1.11-1.18V210.65a1.07,1.07,0,0,1,1.11-1.18h27.15c.89,0,1.18.45,1.18,1.18Z" transform="translate(-124.09 -202)"/><path class="cls-1" d="M469.07,209.47a1.06,1.06,0,0,1,1.18,1.18V218a1.05,1.05,0,0,1-1.18,1.18h-8.56v48.11c0,.82-.37,1.18-1.18,1.18h-7.68a1.05,1.05,0,0,1-1.18-1.18V219.21h-8.56a1.09,1.09,0,0,1-1.18-1.18v-7.38a1.09,1.09,0,0,1,1.18-1.18Z" transform="translate(-124.09 -202)"/><path class="cls-1" d="M504.64,268.5a1.12,1.12,0,0,1-1.18-1l-2.07-10.77H488.25l-2,10.77a1.12,1.12,0,0,1-1.18,1h-7.89c-.82,0-1.18-.44-1-1.25l12.25-56.74a1.15,1.15,0,0,1,1.25-1H500a1.15,1.15,0,0,1,1.25,1l12.25,56.74c.15.81-.15,1.25-1,1.25Zm-9.82-46.11-4.72,25.75h9.44Z" transform="translate(-124.09 -202)"/><path class="cls-1" d="M385.71,316.37a1.18,1.18,0,0,1-1.28,1.28h-8a1.14,1.14,0,0,1-1.28-1.28V310a2.87,2.87,0,0,0-3.2-3.2h-4.15c-2.16,0-3.2,1.12-3.2,3.2v36.44c0,2.16,1.12,3.19,3.2,3.19H372c2.08,0,3.2-1,3.2-3.19V340a1.14,1.14,0,0,1,1.28-1.28h8a1.18,1.18,0,0,1,1.28,1.28v8.63c0,7.51-4.08,11.5-11.51,11.5h-8.95c-7.51,0-11.59-4-11.59-11.5V307.74c0-7.51,4.08-11.51,11.59-11.51h8.95c7.43,0,11.51,4,11.51,11.51Z" transform="translate(-124.09 -202)"/><path class="cls-1" d="M401.69,307.74c0-7.51,4-11.51,11.51-11.51h8.95c7.51,0,11.5,4,11.5,11.51v40.92c0,7.51-4,11.5-11.5,11.5H413.2c-7.52,0-11.51-4-11.51-11.5Zm18.46,42.11c2.08,0,3.19-1,3.19-3.19V309.74a2.87,2.87,0,0,0-3.19-3.2h-4.64a2.87,2.87,0,0,0-3.19,3.2v36.92c0,2.16,1.12,3.19,3.19,3.19Z" transform="translate(-124.09 -202)"/><path class="cls-1" d="M449.64,297.51a1.14,1.14,0,0,1,1.28-1.28h19.17c7.52,0,11.51,4.08,11.51,11.59v40.84c0,7.51-4,11.5-11.51,11.5H450.92a1.11,1.11,0,0,1-1.28-1.28Zm18.22,52.1c2.07,0,3.19-1,3.19-3.19V310.06c0-2.16-1.12-3.28-3.19-3.28H460.5v42.83Z" transform="translate(-124.09 -202)"/><path class="cls-1" d="M529.47,305.5c0,.8-.32,1.36-1.28,1.36h-20v16h15.27a1.2,1.2,0,0,1,1.27,1.36v7.91a1.2,1.2,0,0,1-1.27,1.36H508.21v16.14h20c1,0,1.28.4,1.28,1.28v8c0,.8-.32,1.28-1.28,1.28H498.78a1.16,1.16,0,0,1-1.2-1.28V297.51a1.16,1.16,0,0,1,1.2-1.28h29.41c1,0,1.28.48,1.28,1.28Z" transform="translate(-124.09 -202)"/><path class="cls-1" d="M577.5,327.24c0,5.35-2,8.87-5.84,10.55l5.52,20.93c.24,1-.24,1.44-1.12,1.44h-8.31a1.26,1.26,0,0,1-1.36-1.12L561,338.75h-5.52v20.13a1.18,1.18,0,0,1-1.28,1.28h-8.31a1.18,1.18,0,0,1-1.28-1.28V297.51a1.18,1.18,0,0,1,1.28-1.28H566c7.51,0,11.51,4,11.51,11.51Zm-14.07,1a2.87,2.87,0,0,0,3.2-3.2V310a2.87,2.87,0,0,0-3.2-3.2h-7.91V328.2Z" transform="translate(-124.09 -202)"/><path class="cls-1" d="M613.94,296.23c7.51,0,11.5,4,11.5,11.51v8.47a1.14,1.14,0,0,1-1.27,1.28h-8.32a1.17,1.17,0,0,1-1.27-1.28V310c0-2.08-1-3.2-3.2-3.2h-3.84a2.9,2.9,0,0,0-3.19,3.2v11l19,6.23a2.94,2.94,0,0,1,2.07,3v18.46c0,7.51-4,11.5-11.5,11.5h-9c-7.44,0-11.51-4-11.51-11.5v-8.4a1.14,1.14,0,0,1,1.28-1.27h8.31c.88,0,1.28.4,1.28,1.27v6.16a2.86,2.86,0,0,0,3.19,3.19h3.84c2.08,0,3.2-1,3.2-3.19V335.79l-18.94-6.23a2.85,2.85,0,0,1-2.16-3V307.74c0-7.51,4.07-11.51,11.51-11.51Z" transform="translate(-124.09 -202)"/><path class="cls-1" d="M200.14,202l-.12.52v0l-4.87,20.21-13.6.51c-10.37,0-15.35,5.81-15.35,15.76v39.41c0,12.87-3.94,18.47-12.23,21.16,8.29,2.7,12.23,8.3,12.23,21.16v10.89c0,9.3,4.34,15,13.37,15.69.64.05,1.3.07,2,.07h16.39l.73,4.71v15.62l-3.09,0-5.07.09-15,.3c-23.44,0-35.27-11.82-35.27-33.82v-14.2c0-6.85-3.53-10-9.33-10h-6.84V289h6.84c5.8,0,9.33-3.12,9.33-10V236.33c0-22,11.83-33.81,35.27-33.81Z" transform="translate(-124.09 -202)"/><polygon class="cls-2" points="81.75 0 99.5 0 94.5 20.75 76.75 20.75 81.75 0"/><polygon class="cls-3" points="105.2 0 123.59 0 118.59 20.75 100.2 20.75 105.2 0"/><path class="cls-4" d="M200.06,202.52c-17.14,6.08-42.3,21.87-59.8,62.78v-29c0-22,11.82-33.81,35.26-33.81Z" transform="translate(-124.09 -202)"/><path class="cls-1" d="M276.15,270.56c-8.29-2.7-12.23-8.3-12.23-21.16V238.51c0-9.95-5-15.76-15.35-15.76H248L253,202h1.56c23.44,0,35.27,11.83,35.27,33.82V250c0,6.85,3.52,10,9.33,10H306v21.16h-6.84c-5.81,0-9.33,3.11-9.33,9.95v42.73c0,22-11.83,33.81-35.27,33.81H210.39l5-20.74h33.17c10.37,0,15.35-5.81,15.35-15.76V291.72C263.92,278.85,267.86,273.25,276.15,270.56Z" transform="translate(-124.09 -202)"/><path class="cls-5" d="M230,367.63c17.14-6.08,42.3-21.87,59.81-62.78v29c0,22-11.83,33.81-35.27,33.81Z" transform="translate(-124.09 -202)"/><path class="cls-1" d="M247.33,298.89A23.62,23.62,0,0,0,234.42,281c-.54-.29-1.09-.54-1.68-.82.13-.14.2-.24.28-.32,5.28-5.58,7.43-12.18,6.09-19.75s-5.77-13.23-12.86-16.55a21.55,21.55,0,0,0-9.2-1.95,39.11,39.11,0,0,0-9.72.66,22.51,22.51,0,0,0-16.83,21.69V367.85l5.07-.09,3.09,0V321.16l.51.41a24.31,24.31,0,0,0,11.32,5.3,41.47,41.47,0,0,0,8,.39c3.11,0,6.23.19,9.32-.41a24.31,24.31,0,0,0,19.5-28Zm-14.9,17.41a14.61,14.61,0,0,1-8.34,2.76c-3.59.09-7.2.15-10.79-.07a15.7,15.7,0,0,1-14.2-12.71,37.74,37.74,0,0,1-.41-6.48q-.06-17.79,0-35.58a14.1,14.1,0,0,1,10.7-14,12.6,12.6,0,0,1,3.35-.41,45.73,45.73,0,0,1,7.13.28,13.91,13.91,0,0,1,11.26,11.48,14.26,14.26,0,0,1-8.47,15.62,18.39,18.39,0,0,1-7.81,1.15c-2.47,0-4.93,0-7.4,0l-.56,0v8.13h16.47a16,16,0,0,1,16.05,14.89A15.84,15.84,0,0,1,232.43,316.3Z" transform="translate(-124.09 -202)"/></svg>